Patient4_TMGait_0pt4_01_left_12_GRF.mot
version=1
nRows=65
nColumns=19
inDegrees=no
endheader
time	F1x	F1y	F1z	M1x	M1y	M1z	F2x	F2y	F2z	M2x	M2y	M2z	EC1x	EC1y	EC1z	EC2x	EC2y	EC2z
14.62	8.7097	11.6815	7.6797	-3.1949	-3.1005	13.7741	-30.8156	765.0314	-70.9877	280.7465	88.1238	826.059	-0.0592	0.0182	-0.0073	-0.0462	0.0165	0.9585
14.6339	5.7308	8.3403	5.2026	-2.3458	-2.1801	9.8725	-27.1008	757.3803	-66.6287	278.7641	81.5133	813.0988	-0.0592	0.0182	-0.0073	-0.0462	0.0165	0.9585
14.6477	3.2325	5.5579	3.1165	-1.6396	-1.4034	6.5845	-22.5844	749.4588	-62.1316	276.7673	74.4603	799.2407	-0.0592	0.0182	-0.0073	-0.0462	0.0165	0.9585
14.6616	1.3516	3.4866	1.5337	-1.1179	-0.80874	4.1021	-17.5983	742.6124	-57.8303	275.1897	67.4724	786.1733	-0.0592	0.0182	-0.0073	-0.0462	0.0165	0.9585
14.6754	0.050211	2.1066	0.44964	-0.77495	-0.4032	2.4203	-12.558	738.1159	-54.0112	274.4451	61.0139	775.4843	-0.0592	0.0182	-0.0073	-0.0462	0.0165	0.9585
14.6893	-0.76202	1.2878	-0.21654	-0.57653	-0.15634	1.3965	-7.8346	736.8812	-50.8398	274.8266	55.3989	768.3239	-0.0592	0.0182	-0.0073	-0.0462	0.0165	0.9585
14.7031	-1.2143	0.86696	-0.56292	-0.47593	-0.036565	0.84871	-3.676	739.2584	-48.3918	276.4343	50.7943	765.1806	-0.0592	0.0182	-0.0073	-0.0462	0.0165	0.9585
14.717	-1.4328	0.6719	-0.68845	-0.42199	-0.010736	0.58693	-0.16602	744.9214	-46.6599	279.1324	47.2183	765.7563	-0.0592	0.0182	-0.0073	-0.0462	0.0165	0.9585
14.7309	-1.5093	0.51408	-0.67515	-0.35811	-0.049584	0.39518	2.7522	752.9177	-45.5912	282.5627	44.585	769.0557	-0.0592	0.0182	-0.0073	-0.0462	0.0165	0.9585
14.7447	-1.5316	0.2224	-0.58494	-0.22937	-0.13579	0.085087	5.2297	761.8462	-45.1073	286.2106	42.7466	773.5977	-0.0592	0.0182	-0.0073	-0.0462	0.0165	0.9585
14.7586	-1.539	-0.35767	-0.46401	0.016886	-0.24723	-0.53548	7.4399	770.1237	-45.0948	289.5043	41.5151	777.7115	-0.0592	0.0182	-0.0073	-0.0462	0.0165	0.9585
14.7724	-1.5508	-1.3484	-0.33698	0.4248	-0.36985	-1.6159	9.5165	776.2941	-45.4276	291.9233	40.7086	779.8773	-0.0592	0.0182	-0.0073	-0.0462	0.0165	0.9585
14.7863	-1.555	-2.8208	-0.22922	1.017	-0.4754	-3.2439	11.5701	779.2692	-45.9594	293.0875	40.1399	778.9609	-0.0592	0.0182	-0.0073	-0.0462	0.0165	0.9585
14.8001	-1.4986	-4.7613	-0.15235	1.7835	-0.52839	-5.4185	13.6542	778.485	-46.5685	292.8109	39.6699	774.3849	-0.0592	0.0182	-0.0073	-0.0462	0.0165	0.9585
14.814	-1.3064	-7.0035	-0.12592	2.6579	-0.47309	-7.953	15.774	773.9105	-47.1736	291.1043	39.2167	766.1198	-0.0592	0.0182	-0.0073	-0.0462	0.0165	0.9585
14.8279	-0.85653	-9.1759	-0.16545	3.4945	-0.24042	-10.4372	17.925	766.0128	-47.7705	288.1578	38.7759	754.6311	-0.0592	0.0182	-0.0073	-0.0462	0.0165	0.9585
14.8417	-0.011498	-10.61	-0.29188	4.036	0.25048	-12.1234	20.108	755.692	-48.3858	284.316	38.3668	740.7991	-0.0592	0.0182	-0.0073	-0.0462	0.0165	0.9585
14.8556	1.3724	-10.2595	-0.5334	3.8814	1.0858	-11.8348	22.3557	744.0911	-49.0563	280.0079	38.006	725.7266	-0.0592	0.0182	-0.0073	-0.0462	0.0165	0.9585
14.8694	3.421	-6.6646	-0.90725	2.4704	2.3305	-7.9295	24.6904	732.3553	-49.7823	275.6528	37.677	710.5403	-0.0592	0.0182	-0.0073	-0.0462	0.0165	0.9585
14.8833	6.1721	2.0341	-1.4304	-0.9098	4.0117	1.6933	27.1127	721.3302	-50.5339	271.5456	37.344	696.1158	-0.0592	0.0182	-0.0073	-0.0462	0.0165	0.9585
14.8971	9.5134	17.9541	-2.0833	-7.0702	6.0602	19.4358	29.5508	711.3094	-51.2398	267.7613	36.9609	682.8514	-0.0592	0.0182	-0.0073	-0.0462	0.0165	0.9585
14.911	13.086	43.1262	-2.8005	-16.7872	8.2567	47.6329	31.8237	701.8939	-51.786	264.1063	36.4837	670.5391	-0.0592	0.0182	-0.0073	-0.0462	0.0165	0.9585
14.9249	16.1554	78.8968	-3.4556	-30.5693	10.168	87.8859	33.6826	692.0104	-52.0216	260.1369	35.8646	658.3476	-0.0592	0.0182	-0.0073	-0.0462	0.0165	0.9585
14.9387	17.5731	125.0719	-3.8314	-48.3256	11.1003	140.0842	34.8382	680.112	-51.7708	255.2458	35.0563	644.9937	-0.0592	0.0182	-0.0073	-0.0462	0.0165	0.9585
14.9526	15.926	178.8774	-3.6143	-68.9662	10.1544	201.2293	35.0406	664.4766	-50.8766	248.7882	34.021	628.974	-0.0592	0.0182	-0.0073	-0.0462	0.0165	0.9585
14.9664	10.5033	234.4154	-2.3105	-90.1931	6.5141	264.7787	34.2005	643.6732	-49.229	240.2661	32.7095	608.9337	-0.0592	0.0182	-0.0073	-0.0462	0.0165	0.9585
14.9803	2.5161	284.8342	0.61796	-109.3493	0.094163	322.9702	32.4922	617.1249	-46.8179	229.5333	31.0657	584.1723	-0.0592	0.0182	-0.0073	-0.0462	0.0165	0.9585
14.9941	-6.4854	326.7826	4.5568	-125.1509	-7.8251	371.8299	30.3259	585.3123	-43.7485	216.8459	29.0438	554.8649	-0.0592	0.0182	-0.0073	-0.0462	0.0165	0.9585
15.008	-15.1533	360.4274	8.9252	-137.677	-16.0803	411.3518	28.1492	549.1745	-40.2755	202.624	26.705	521.6007	-0.0592	0.0182	-0.0073	-0.0462	0.0165	0.9585
15.0219	-22.6446	387.4597	13.0274	-147.6153	-23.5903	443.3212	26.2529	509.5269	-36.592	187.2286	24.1001	484.9231	-0.0592	0.0182	-0.0073	-0.0462	0.0165	0.9585
15.0357	-28.681	409.9043	16.609	-155.7647	-29.9372	469.9388	24.7017	466.9202	-32.7577	170.9079	21.2471	445.2214	-0.0592	0.0182	-0.0073	-0.0462	0.0165	0.9585
15.0496	-33.1633	429.6958	19.4377	-162.8809	-34.8315	493.2181	23.3522	421.8217	-28.7361	153.8577	18.1539	402.897	-0.0592	0.0182	-0.0073	-0.0462	0.0165	0.9585
15.0634	-36.0651	448.8527	21.7583	-169.7149	-38.5058	515.3039	21.9659	374.7438	-24.5467	136.2706	14.9162	358.4471	-0.0592	0.0182	-0.0073	-0.0462	0.0165	0.9585
15.0773	-37.3709	469.3528	23.8486	-176.9885	-41.2701	538.2683	20.2607	326.4245	-20.2885	118.4004	11.7129	312.6305	-0.0592	0.0182	-0.0073	-0.0462	0.0165	0.9585
15.0911	-37.2864	492.7122	26.255	-185.2246	-43.7794	563.7447	18.0135	277.8713	-16.1745	100.5815	8.8057	266.4763	-0.0592	0.0182	-0.0073	-0.0462	0.0165	0.9585
15.105	-36.1882	519.7665	29.3738	-194.6906	-46.601	592.6202	15.1509	230.3577	-12.4337	83.2405	6.4288	221.2399	-0.0592	0.0182	-0.0073	-0.0462	0.0165	0.9585
15.1189	-34.4503	550.8143	33.4788	-205.4625	-50.158	625.2219	11.755	185.3643	-9.2621	66.8789	4.7345	178.3644	-0.0592	0.0182	-0.0073	-0.0462	0.0165	0.9585
15.1327	-32.4193	585.6107	38.4874	-217.4277	-54.4906	661.3092	8.1018	144.341	-6.7554	51.9959	3.7205	139.2272	-0.0592	0.0182	-0.0073	-0.0462	0.0165	0.9585
15.1466	-30.3024	623.1697	44.178	-230.2114	-59.4387	699.8298	4.541	108.4241	-4.9038	38.9876	3.2616	104.9012	-0.0592	0.0182	-0.0073	-0.0462	0.0165	0.9585
15.1604	-28.279	661.7866	50.2086	-243.1868	-64.7076	739.0019	1.384	78.2381	-3.5916	28.0717	3.1448	75.9863	-0.0592	0.0182	-0.0073	-0.0462	0.0165	0.9585
15.1743	-26.4743	699.2725	56.2421	-255.5669	-69.9919	776.5466	-1.1205	53.8203	-2.6647	19.2591	3.1459	52.5205	-0.0592	0.0182	-0.0073	-0.0462	0.0165	0.9585
15.1881	-24.9371	733.4119	62.0013	-266.5688	-75.0308	810.1675	-2.8674	34.789	-1.9853	12.4072	3.102	34.1722	-0.0592	0.0182	-0.0073	-0.0462	0.0165	0.9585
15.202	-23.6602	762.3276	67.1995	-275.562	-79.5383	837.9403	-3.8181	20.5099	-1.4484	7.2828	2.9047	20.3619	-0.0592	0.0182	-0.0073	-0.0462	0.0165	0.9585
15.2159	-22.5617	784.7046	71.6333	-282.1417	-83.2861	858.5314	-4.0105	10.295	-1	3.631	2.5198	10.4542	-0.0592	0.0182	-0.0073	-0.0462	0.0165	0.9585
15.2297	-21.5261	799.9171	75.0705	-286.1638	-86.003	871.3221	-3.6214	3.5069	-0.62071	1.2136	1.9961	3.8513	-0.0592	0.0182	-0.0073	-0.0462	0.0165	0.9585
15.2436	-20.4173	808.0081	77.3995	-287.7188	-87.5328	876.4022	-2.9465	-0.51225	-0.33005	-0.21057	1.4607	-0.079789	-0.0592	0.0182	-0.0073	-0.0462	0.0165	0.9585
15.2574	-19.1145	809.5748	78.5304	-287.0877	-87.7517	874.4278	-2.2227	-2.4761	-0.1266	-0.89952	0.99484	-2.0222	-0.0592	0.0182	-0.0073	-0.0462	0.0165	0.9585
15.2713	-17.5476	805.6575	78.55	-284.6876	-86.7284	866.5262	-1.5709	-3.0553	-0.0048634	-1.0949	0.63714	-2.6241	-0.0592	0.0182	-0.0073	-0.0462	0.0165	0.9585
15.2851	-15.6742	797.5836	77.5834	-281.0232	-84.5893	854.0973	-1.0398	-2.8051	0.055791	-0.99529	0.3873	-2.421	-0.0592	0.0182	-0.0073	-0.0462	0.0165	0.9585
15.299	-13.5086	786.8017	75.872	-276.625	-81.5927	838.6752	-0.65654	-2.1406	0.069448	-0.7495	0.24014	-1.8027	-0.0592	0.0182	-0.0073	-0.0462	0.0165	0.9585
15.3129	-11.0798	774.7465	73.6166	-272.0136	-77.9675	821.7644	-0.39626	-1.3418	0.055298	-0.45656	0.16706	-1.0407	-0.0592	0.0182	-0.0073	-0.0462	0.0165	0.9585
15.3267	-8.4349	762.7502	71.0158	-267.6696	-73.9382	804.7668	-0.24209	-0.56028	0.022614	-0.17196	0.14701	-0.27849	-0.0592	0.0182	-0.0073	-0.0462	0.0165	0.9585
15.3406	-5.6141	751.9466	68.1997	-263.9974	-69.655	788.8611	-0.17273	0.11638	-0.01749	0.074147	0.15667	0.39235	-0.0592	0.0182	-0.0073	-0.0462	0.0165	0.9585
15.3544	-2.6332	743.1653	65.2899	-261.2797	-65.2459	774.8806	-0.1664	0.64431	-0.061146	0.26772	0.18173	0.91564	-0.0592	0.0182	-0.0073	-0.0462	0.0165	0.9585
15.3683	0.52147	736.8778	62.4123	-259.6588	-60.8305	763.2901	-0.21481	1.0234	-0.10638	0.40856	0.21831	1.2908	-0.0592	0.0182	-0.0073	-0.0462	0.0165	0.9585
15.3821	3.8857	733.2067	59.665	-259.1468	-56.4939	754.2041	-0.297	1.2424	-0.15125	0.49278	0.26888	1.4977	-0.0592	0.0182	-0.0073	-0.0462	0.0165	0.9585
15.396	7.4888	732.014	57.1652	-259.6562	-52.3389	747.4883	-0.41722	1.2867	-0.19571	0.51349	0.34304	1.5234	-0.0592	0.0182	-0.0073	-0.0462	0.0165	0.9585
15.4099	11.3565	732.9978	54.9787	-261.036	-48.4198	742.8512	-0.56615	1.1319	-0.23543	0.45995	0.43882	1.3398	-0.0592	0.0182	-0.0073	-0.0462	0.0165	0.9585
15.4237	15.478	735.7768	53.1859	-263.0982	-44.8121	739.9442	-0.72792	0.73855	-0.27476	0.31426	0.55725	0.89392	-0.0592	0.0182	-0.0073	-0.0462	0.0165	0.9585
15.4376	19.811	739.9669	51.8166	-265.65	-41.5544	738.4277	-0.89975	0.053023	-0.306	0.053311	0.6845	0.11652	-0.0592	0.0182	-0.0073	-0.0462	0.0165	0.9585
15.4514	24.2742	745.1803	50.9321	-268.4982	-38.7251	737.9717	-1.0536	-0.9956	-0.33323	-0.3486	0.80506	-1.083	-0.0592	0.0182	-0.0073	-0.0462	0.0165	0.9585
15.4653	28.7573	751.0163	50.5646	-271.454	-36.3857	738.2412	-1.1501	-2.4348	-0.34785	-0.9019	0.88196	-2.7357	-0.0592	0.0182	-0.0073	-0.0462	0.0165	0.9585
15.4791	33.1374	757.0657	50.7338	-274.3369	-34.5898	738.8945	-1.1175	-4.2348	-0.34013	-1.5951	0.86888	-4.8143	-0.0592	0.0182	-0.0073	-0.0462	0.0165	0.9585
15.493	37.3042	762.904	51.3869	-276.9683	-33.3197	739.5719	-0.85919	-6.2538	-0.28019	-2.3734	0.69443	-7.1682	-0.0592	0.0182	-0.0073	-0.0462	0.0165	0.9585
15.5069	41.1556	768.0072	52.4429	-279.1343	-32.5331	739.8258	-0.26016	-8.1534	-0.14202	-3.1061	0.28675	-9.4076	-0.0592	0.0182	-0.0073	-0.0462	0.0165	0.9585
